<mxfile host="app.diagrams.net" modified="2023-12-16T17:08:09.441Z" agent="Mozilla/5.0 (Macintosh; Intel Mac OS X 10_15_7) AppleWebKit/605.1.15 (KHTML, like Gecko) Version/17.2 Safari/605.1.15" etag="0FqpmEpHo_6p1BJvrEBa" version="22.1.11" type="device">
  <diagram name="Page-1" id="6xFprMEcJ63qp11P9tHP">
    <mxGraphModel dx="1546" dy="971" grid="1" gridSize="10" guides="1" tooltips="1" connect="1" arrows="1" fold="1" page="1" pageScale="1" pageWidth="1169" pageHeight="827" math="0" shadow="0">
      <root>
        <mxCell id="0" />
        <mxCell id="1" parent="0" />
        <mxCell id="rU5KAvZZezqxSlQUQ96H-78" value="" style="rounded=1;whiteSpace=wrap;html=1;labelBackgroundColor=default;strokeColor=default;strokeWidth=4;align=center;verticalAlign=middle;fontFamily=Helvetica;fontSize=11;fontColor=default;startArrow=blockThin;startFill=1;endArrow=none;endFill=0;fillColor=default;" vertex="1" parent="1">
          <mxGeometry x="29" y="50" width="1121" height="620" as="geometry" />
        </mxCell>
        <mxCell id="rU5KAvZZezqxSlQUQ96H-3" value="" style="sketch=0;outlineConnect=0;fontColor=#232F3E;gradientColor=none;fillColor=#232F3D;strokeColor=none;dashed=0;verticalLabelPosition=bottom;verticalAlign=top;align=center;html=1;fontSize=12;fontStyle=0;aspect=fixed;pointerEvents=1;shape=mxgraph.aws4.document;" vertex="1" parent="1">
          <mxGeometry x="60" y="375" width="57" height="78" as="geometry" />
        </mxCell>
        <mxCell id="rU5KAvZZezqxSlQUQ96H-16" value="" style="group" vertex="1" connectable="0" parent="1">
          <mxGeometry x="248" y="186.5" width="100" height="455" as="geometry" />
        </mxCell>
        <mxCell id="rU5KAvZZezqxSlQUQ96H-7" value="" style="group" vertex="1" connectable="0" parent="rU5KAvZZezqxSlQUQ96H-16">
          <mxGeometry width="100" height="115" as="geometry" />
        </mxCell>
        <mxCell id="rU5KAvZZezqxSlQUQ96H-5" value="" style="html=1;shape=mxgraph.basic.isocube;isoAngle=15;" vertex="1" parent="rU5KAvZZezqxSlQUQ96H-7">
          <mxGeometry x="30" width="60" height="65" as="geometry" />
        </mxCell>
        <mxCell id="rU5KAvZZezqxSlQUQ96H-4" value="" style="html=1;shape=mxgraph.basic.isocube;isoAngle=15;" vertex="1" parent="rU5KAvZZezqxSlQUQ96H-7">
          <mxGeometry y="25" width="60" height="65" as="geometry" />
        </mxCell>
        <mxCell id="rU5KAvZZezqxSlQUQ96H-6" value="" style="html=1;shape=mxgraph.basic.isocube;isoAngle=15;" vertex="1" parent="rU5KAvZZezqxSlQUQ96H-7">
          <mxGeometry x="40" y="50" width="60" height="65" as="geometry" />
        </mxCell>
        <mxCell id="rU5KAvZZezqxSlQUQ96H-8" value="" style="group" vertex="1" connectable="0" parent="rU5KAvZZezqxSlQUQ96H-16">
          <mxGeometry y="170" width="100" height="115" as="geometry" />
        </mxCell>
        <mxCell id="rU5KAvZZezqxSlQUQ96H-9" value="" style="html=1;shape=mxgraph.basic.isocube;isoAngle=15;" vertex="1" parent="rU5KAvZZezqxSlQUQ96H-8">
          <mxGeometry x="30" width="60" height="65" as="geometry" />
        </mxCell>
        <mxCell id="rU5KAvZZezqxSlQUQ96H-10" value="" style="html=1;shape=mxgraph.basic.isocube;isoAngle=15;" vertex="1" parent="rU5KAvZZezqxSlQUQ96H-8">
          <mxGeometry y="25" width="60" height="65" as="geometry" />
        </mxCell>
        <mxCell id="rU5KAvZZezqxSlQUQ96H-11" value="" style="html=1;shape=mxgraph.basic.isocube;isoAngle=15;" vertex="1" parent="rU5KAvZZezqxSlQUQ96H-8">
          <mxGeometry x="40" y="50" width="60" height="65" as="geometry" />
        </mxCell>
        <mxCell id="rU5KAvZZezqxSlQUQ96H-12" value="" style="group" vertex="1" connectable="0" parent="rU5KAvZZezqxSlQUQ96H-16">
          <mxGeometry y="340" width="100" height="115" as="geometry" />
        </mxCell>
        <mxCell id="rU5KAvZZezqxSlQUQ96H-13" value="" style="html=1;shape=mxgraph.basic.isocube;isoAngle=15;" vertex="1" parent="rU5KAvZZezqxSlQUQ96H-12">
          <mxGeometry x="30" width="60" height="65" as="geometry" />
        </mxCell>
        <mxCell id="rU5KAvZZezqxSlQUQ96H-14" value="" style="html=1;shape=mxgraph.basic.isocube;isoAngle=15;" vertex="1" parent="rU5KAvZZezqxSlQUQ96H-12">
          <mxGeometry y="25" width="60" height="65" as="geometry" />
        </mxCell>
        <mxCell id="rU5KAvZZezqxSlQUQ96H-15" value="" style="html=1;shape=mxgraph.basic.isocube;isoAngle=15;" vertex="1" parent="rU5KAvZZezqxSlQUQ96H-12">
          <mxGeometry x="40" y="50" width="60" height="65" as="geometry" />
        </mxCell>
        <mxCell id="rU5KAvZZezqxSlQUQ96H-22" value="" style="group" vertex="1" connectable="0" parent="1">
          <mxGeometry x="480" y="205" width="57" height="418" as="geometry" />
        </mxCell>
        <mxCell id="rU5KAvZZezqxSlQUQ96H-26" style="edgeStyle=orthogonalEdgeStyle;rounded=0;orthogonalLoop=1;jettySize=auto;html=1;startArrow=blockThin;startFill=1;endArrow=none;endFill=0;jumpSize=6;strokeWidth=4;" edge="1" parent="rU5KAvZZezqxSlQUQ96H-22">
          <mxGeometry relative="1" as="geometry">
            <mxPoint x="-120" y="39" as="targetPoint" />
            <mxPoint x="-10" y="39" as="sourcePoint" />
          </mxGeometry>
        </mxCell>
        <mxCell id="rU5KAvZZezqxSlQUQ96H-18" value="" style="sketch=0;outlineConnect=0;fontColor=#232F3E;gradientColor=none;fillColor=#232F3D;strokeColor=none;dashed=0;verticalLabelPosition=bottom;verticalAlign=top;align=center;html=1;fontSize=12;fontStyle=0;aspect=fixed;pointerEvents=1;shape=mxgraph.aws4.source_code;flipH=0;" vertex="1" parent="rU5KAvZZezqxSlQUQ96H-22">
          <mxGeometry width="57" height="78" as="geometry" />
        </mxCell>
        <mxCell id="rU5KAvZZezqxSlQUQ96H-27" style="edgeStyle=orthogonalEdgeStyle;rounded=0;orthogonalLoop=1;jettySize=auto;html=1;startArrow=blockThin;startFill=1;endArrow=none;endFill=0;jumpSize=6;strokeWidth=4;" edge="1" parent="rU5KAvZZezqxSlQUQ96H-22">
          <mxGeometry relative="1" as="geometry">
            <mxPoint x="-120" y="209" as="targetPoint" />
            <mxPoint x="-10" y="209" as="sourcePoint" />
          </mxGeometry>
        </mxCell>
        <mxCell id="rU5KAvZZezqxSlQUQ96H-34" style="edgeStyle=orthogonalEdgeStyle;rounded=0;orthogonalLoop=1;jettySize=auto;html=1;strokeWidth=4;endArrow=none;endFill=0;" edge="1" parent="rU5KAvZZezqxSlQUQ96H-22">
          <mxGeometry relative="1" as="geometry">
            <mxPoint x="170" y="209" as="targetPoint" />
            <mxPoint x="70" y="209" as="sourcePoint" />
          </mxGeometry>
        </mxCell>
        <mxCell id="rU5KAvZZezqxSlQUQ96H-19" value="" style="sketch=0;outlineConnect=0;fontColor=#232F3E;gradientColor=none;fillColor=#232F3D;strokeColor=none;dashed=0;verticalLabelPosition=bottom;verticalAlign=top;align=center;html=1;fontSize=12;fontStyle=0;aspect=fixed;pointerEvents=1;shape=mxgraph.aws4.source_code;flipH=0;" vertex="1" parent="rU5KAvZZezqxSlQUQ96H-22">
          <mxGeometry y="170" width="57" height="78" as="geometry" />
        </mxCell>
        <mxCell id="rU5KAvZZezqxSlQUQ96H-28" style="edgeStyle=orthogonalEdgeStyle;rounded=0;orthogonalLoop=1;jettySize=auto;html=1;startArrow=blockThin;startFill=1;endArrow=none;endFill=0;jumpSize=6;strokeWidth=4;" edge="1" parent="rU5KAvZZezqxSlQUQ96H-22">
          <mxGeometry relative="1" as="geometry">
            <mxPoint x="-120" y="379" as="targetPoint" />
            <mxPoint x="-10" y="379" as="sourcePoint" />
          </mxGeometry>
        </mxCell>
        <mxCell id="rU5KAvZZezqxSlQUQ96H-20" value="" style="sketch=0;outlineConnect=0;fontColor=#232F3E;gradientColor=none;fillColor=#232F3D;strokeColor=none;dashed=0;verticalLabelPosition=bottom;verticalAlign=top;align=center;html=1;fontSize=12;fontStyle=0;aspect=fixed;pointerEvents=1;shape=mxgraph.aws4.source_code;flipH=0;" vertex="1" parent="rU5KAvZZezqxSlQUQ96H-22">
          <mxGeometry y="340" width="57" height="78" as="geometry" />
        </mxCell>
        <mxCell id="rU5KAvZZezqxSlQUQ96H-23" style="edgeStyle=orthogonalEdgeStyle;rounded=0;orthogonalLoop=1;jettySize=auto;html=1;strokeWidth=4;endArrow=blockThin;endFill=1;" edge="1" parent="1">
          <mxGeometry relative="1" as="geometry">
            <mxPoint x="130" y="414" as="sourcePoint" />
            <mxPoint x="230" y="244" as="targetPoint" />
            <Array as="points">
              <mxPoint x="170" y="414" />
              <mxPoint x="170" y="244" />
            </Array>
          </mxGeometry>
        </mxCell>
        <mxCell id="rU5KAvZZezqxSlQUQ96H-24" style="edgeStyle=orthogonalEdgeStyle;rounded=0;orthogonalLoop=1;jettySize=auto;html=1;strokeWidth=4;endArrow=blockThin;endFill=1;" edge="1" parent="1">
          <mxGeometry relative="1" as="geometry">
            <mxPoint x="130" y="414" as="sourcePoint" />
            <mxPoint x="230" y="414" as="targetPoint" />
          </mxGeometry>
        </mxCell>
        <mxCell id="rU5KAvZZezqxSlQUQ96H-25" style="edgeStyle=orthogonalEdgeStyle;rounded=0;orthogonalLoop=1;jettySize=auto;html=1;strokeWidth=4;endArrow=blockThin;endFill=1;" edge="1" parent="1">
          <mxGeometry relative="1" as="geometry">
            <mxPoint x="130" y="414" as="sourcePoint" />
            <mxPoint x="230" y="584" as="targetPoint" />
            <Array as="points">
              <mxPoint x="170" y="414" />
              <mxPoint x="170" y="584" />
            </Array>
          </mxGeometry>
        </mxCell>
        <mxCell id="rU5KAvZZezqxSlQUQ96H-29" value="FILE" style="text;html=1;align=center;verticalAlign=middle;resizable=0;points=[];autosize=1;strokeColor=none;fillColor=none;fontSize=16;" vertex="1" parent="1">
          <mxGeometry x="58.5" y="460" width="60" height="30" as="geometry" />
        </mxCell>
        <mxCell id="rU5KAvZZezqxSlQUQ96H-30" value="CHUNKS" style="text;html=1;align=center;verticalAlign=middle;resizable=0;points=[];autosize=1;strokeColor=none;fillColor=none;fontSize=16;" vertex="1" parent="1">
          <mxGeometry x="253" y="100" width="90" height="30" as="geometry" />
        </mxCell>
        <mxCell id="rU5KAvZZezqxSlQUQ96H-31" value="EMBEDDINGS" style="text;html=1;align=center;verticalAlign=middle;resizable=0;points=[];autosize=1;strokeColor=none;fillColor=none;fontSize=16;" vertex="1" parent="1">
          <mxGeometry x="443.5" y="100" width="130" height="30" as="geometry" />
        </mxCell>
        <mxCell id="rU5KAvZZezqxSlQUQ96H-71" style="edgeStyle=orthogonalEdgeStyle;rounded=0;orthogonalLoop=1;jettySize=auto;html=1;fontFamily=Helvetica;fontSize=11;fontColor=default;startArrow=none;startFill=0;endArrow=openThin;endFill=0;strokeWidth=4;sourcePerimeterSpacing=8;targetPerimeterSpacing=8;" edge="1" parent="1" source="rU5KAvZZezqxSlQUQ96H-32" target="rU5KAvZZezqxSlQUQ96H-69">
          <mxGeometry relative="1" as="geometry" />
        </mxCell>
        <mxCell id="rU5KAvZZezqxSlQUQ96H-32" value="" style="shape=datastore;whiteSpace=wrap;html=1;" vertex="1" parent="1">
          <mxGeometry x="767.67" y="366" width="62.67" height="94" as="geometry" />
        </mxCell>
        <mxCell id="rU5KAvZZezqxSlQUQ96H-33" style="edgeStyle=orthogonalEdgeStyle;rounded=0;orthogonalLoop=1;jettySize=auto;html=1;strokeWidth=4;endArrow=none;endFill=0;" edge="1" parent="1">
          <mxGeometry relative="1" as="geometry">
            <mxPoint x="550" y="244" as="sourcePoint" />
            <mxPoint x="650" y="414" as="targetPoint" />
            <Array as="points">
              <mxPoint x="600" y="244" />
              <mxPoint x="600" y="414" />
            </Array>
          </mxGeometry>
        </mxCell>
        <mxCell id="rU5KAvZZezqxSlQUQ96H-35" style="edgeStyle=orthogonalEdgeStyle;rounded=0;orthogonalLoop=1;jettySize=auto;html=1;strokeWidth=4;endArrow=blockThin;endFill=1;" edge="1" parent="1">
          <mxGeometry relative="1" as="geometry">
            <mxPoint x="550" y="584" as="sourcePoint" />
            <mxPoint x="750" y="414" as="targetPoint" />
            <Array as="points">
              <mxPoint x="600" y="584" />
              <mxPoint x="600" y="414" />
            </Array>
          </mxGeometry>
        </mxCell>
        <mxCell id="rU5KAvZZezqxSlQUQ96H-37" value="VECTOR &lt;br&gt;STORE" style="text;html=1;align=center;verticalAlign=middle;resizable=0;points=[];autosize=1;strokeColor=none;fillColor=none;fontSize=16;" vertex="1" parent="1">
          <mxGeometry x="754.01" y="470" width="90" height="50" as="geometry" />
        </mxCell>
        <mxCell id="rU5KAvZZezqxSlQUQ96H-63" value="&lt;font style=&quot;font-size: 16px;&quot;&gt;QUERY&lt;/font&gt;" style="edgeStyle=orthogonalEdgeStyle;rounded=0;orthogonalLoop=1;jettySize=auto;html=1;fontFamily=Helvetica;fontSize=11;fontColor=default;startArrow=none;startFill=0;endArrow=classicThin;endFill=1;targetPerimeterSpacing=0;strokeWidth=4;startSize=6;jumpSize=11;sourcePerimeterSpacing=8;" edge="1" parent="1" source="rU5KAvZZezqxSlQUQ96H-38">
          <mxGeometry relative="1" as="geometry">
            <mxPoint x="799" y="360" as="targetPoint" />
          </mxGeometry>
        </mxCell>
        <mxCell id="rU5KAvZZezqxSlQUQ96H-38" value="" style="sketch=0;outlineConnect=0;fontColor=#232F3E;gradientColor=none;fillColor=#232F3D;strokeColor=none;dashed=0;verticalLabelPosition=bottom;verticalAlign=top;align=center;html=1;fontSize=12;fontStyle=0;aspect=fixed;pointerEvents=1;shape=mxgraph.aws4.user;" vertex="1" parent="1">
          <mxGeometry x="770" y="100" width="58" height="58" as="geometry" />
        </mxCell>
        <mxCell id="rU5KAvZZezqxSlQUQ96H-74" style="edgeStyle=orthogonalEdgeStyle;rounded=0;orthogonalLoop=1;jettySize=auto;html=1;fontFamily=Helvetica;fontSize=11;fontColor=default;startArrow=blockThin;startFill=1;endArrow=none;endFill=0;strokeWidth=4;targetPerimeterSpacing=8;sourcePerimeterSpacing=8;" edge="1" parent="1" source="rU5KAvZZezqxSlQUQ96H-66">
          <mxGeometry relative="1" as="geometry">
            <mxPoint x="840" y="260" as="targetPoint" />
            <Array as="points">
              <mxPoint x="927" y="245" />
              <mxPoint x="927" y="260" />
              <mxPoint x="840" y="260" />
            </Array>
          </mxGeometry>
        </mxCell>
        <mxCell id="rU5KAvZZezqxSlQUQ96H-66" value="" style="shape=mxgraph.signs.healthcare.brain;html=1;pointerEvents=1;fillColor=#000000;strokeColor=none;verticalLabelPosition=bottom;verticalAlign=top;align=center;rounded=0;labelBackgroundColor=default;strokeWidth=4;fontFamily=Helvetica;fontSize=11;fontColor=default;startArrow=blockThin;startFill=1;endArrow=none;endFill=0;" vertex="1" parent="1">
          <mxGeometry x="1012.675" y="220" width="57.65" height="50" as="geometry" />
        </mxCell>
        <mxCell id="rU5KAvZZezqxSlQUQ96H-69" value="" style="sketch=0;outlineConnect=0;fontColor=#232F3E;gradientColor=none;fillColor=#232F3D;strokeColor=none;dashed=0;verticalLabelPosition=bottom;verticalAlign=top;align=center;html=1;fontSize=12;fontStyle=0;aspect=fixed;pointerEvents=1;shape=mxgraph.aws4.documents3;rounded=0;labelBackgroundColor=default;strokeWidth=4;fontFamily=Helvetica;startArrow=blockThin;startFill=1;endArrow=none;endFill=0;" vertex="1" parent="1">
          <mxGeometry x="1013" y="374" width="57" height="78" as="geometry" />
        </mxCell>
        <mxCell id="rU5KAvZZezqxSlQUQ96H-72" value="MATCHED &lt;br&gt;DOCUMENTS" style="text;html=1;align=center;verticalAlign=middle;resizable=0;points=[];autosize=1;strokeColor=none;fillColor=none;fontSize=16;" vertex="1" parent="1">
          <mxGeometry x="976.5" y="470" width="130" height="50" as="geometry" />
        </mxCell>
        <mxCell id="rU5KAvZZezqxSlQUQ96H-73" style="edgeStyle=orthogonalEdgeStyle;rounded=0;orthogonalLoop=1;jettySize=auto;html=1;entryX=0.503;entryY=1.073;entryDx=0;entryDy=0;entryPerimeter=0;fontFamily=Helvetica;fontSize=11;fontColor=default;startArrow=none;startFill=0;endArrow=openThin;endFill=0;strokeWidth=4;sourcePerimeterSpacing=8;targetPerimeterSpacing=8;" edge="1" parent="1" source="rU5KAvZZezqxSlQUQ96H-69" target="rU5KAvZZezqxSlQUQ96H-66">
          <mxGeometry relative="1" as="geometry" />
        </mxCell>
        <mxCell id="rU5KAvZZezqxSlQUQ96H-76" style="edgeStyle=orthogonalEdgeStyle;rounded=0;orthogonalLoop=1;jettySize=auto;html=1;fontFamily=Helvetica;fontSize=11;fontColor=default;startArrow=blockThin;startFill=1;endArrow=none;endFill=0;strokeWidth=4;sourcePerimeterSpacing=8;targetPerimeterSpacing=8;" edge="1" parent="1" source="rU5KAvZZezqxSlQUQ96H-38">
          <mxGeometry relative="1" as="geometry">
            <mxPoint x="1040" y="210" as="targetPoint" />
            <Array as="points">
              <mxPoint x="1041" y="129" />
              <mxPoint x="1041" y="210" />
            </Array>
          </mxGeometry>
        </mxCell>
        <mxCell id="rU5KAvZZezqxSlQUQ96H-77" value="ANSWER" style="edgeLabel;html=1;align=center;verticalAlign=middle;resizable=0;points=[];fontSize=11;fontFamily=Helvetica;fontColor=default;spacingLeft=3;spacingRight=3;spacing=4;spacingTop=0; padding=1;" vertex="1" connectable="0" parent="rU5KAvZZezqxSlQUQ96H-76">
          <mxGeometry x="-0.0289" relative="1" as="geometry">
            <mxPoint x="67" y="29" as="offset" />
          </mxGeometry>
        </mxCell>
      </root>
    </mxGraphModel>
  </diagram>
</mxfile>
